<svg data-v-29081953="" xmlns="http://www.w3.org/2000/svg" viewBox="0 0 300 300"><!----><defs data-v-29081953=""><!----></defs><rect data-v-29081953="" fill="transparent" x="0" y="0" width="300px" height="300px" class="logo-background-square"></rect><defs data-v-29081953=""><!----></defs><g data-v-29081953="" id="d18433ac-fdca-42f1-98a9-d0f7a2d07853" fill="#000000" transform="matrix(4.369457105779337,0,0,4.369457105779337,58.132157944166956,171.60588266674327)"><path d="M8.36 4.98L8.36 4.98L8.36 4.98Q8.60 5.10 8.86 5.27L8.86 5.27L8.86 5.27Q9.13 5.45 9.35 5.63L9.35 5.63L9.35 5.63Q9.58 5.82 9.73 6.00L9.73 6.00L9.73 6.00Q9.88 6.17 9.88 6.27L9.88 6.27L9.88 6.27Q9.69 6.23 9.46 6.20L9.46 6.20L9.46 6.20Q9.23 6.17 9.02 6.17L9.02 6.17L9.02 6.17Q8.26 6.17 7.55 6.50L7.55 6.50L7.55 6.50Q6.83 6.83 6.19 7.45L6.19 7.45L6.19 7.45Q5.54 8.06 5.00 8.95L5.00 8.95L5.00 8.95Q4.47 9.84 4.07 10.96L4.07 10.96L4.07 10.96Q3.75 11.90 3.56 12.82L3.56 12.82L3.56 12.82Q3.36 13.73 3.36 14.35L3.36 14.35L3.36 14.35Q3.36 15.13 3.68 15.16L3.68 15.16L3.68 15.16Q3.77 15.16 3.97 15.20L3.97 15.20L3.97 15.20Q4.17 15.23 4.40 15.29L4.40 15.29L4.40 15.29Q4.63 15.34 4.87 15.41L4.87 15.41L4.87 15.41Q5.10 15.47 5.25 15.53L5.25 15.53L5.25 15.53Q5.78 15.50 6.50 15.04L6.50 15.04L6.50 15.04Q7.21 14.57 7.90 13.80L7.90 13.80L7.90 13.80Q8.50 13.13 8.98 12.33L8.98 12.33L8.98 12.33Q9.46 11.52 9.80 10.63L9.80 10.63L9.80 10.63Q10.14 9.74 10.31 8.81L10.31 8.81L10.31 8.81Q10.49 7.87 10.49 6.94L10.49 6.94L10.49 6.94Q10.49 6.66 10.47 6.40L10.47 6.40L10.47 6.40Q10.46 6.13 10.43 6.03L10.43 6.03L10.43 6.03Q11.00 6.31 11.24 6.69L11.24 6.69L11.24 6.69Q11.48 7.07 11.48 7.66L11.48 7.66L11.48 7.66Q11.48 8.50 11.21 9.46L11.21 9.46L11.21 9.46Q10.95 10.43 10.48 11.40L10.48 11.40L10.48 11.40Q10.01 12.36 9.37 13.25L9.37 13.25L9.37 13.25Q8.72 14.14 7.97 14.84L7.97 14.84L7.97 14.84Q6.97 15.76 6.34 15.88L6.34 15.88L6.34 15.88Q6.72 16.07 7.21 16.30L7.21 16.30L7.21 16.30Q7.70 16.53 8.16 16.74L8.16 16.74L8.16 16.74Q8.62 16.94 8.99 17.08L8.99 17.08L8.99 17.08Q9.35 17.22 9.48 17.23L9.48 17.23L9.48 17.23Q9.62 17.22 9.84 17.06L9.84 17.06L9.84 17.06Q10.07 16.90 10.22 16.67L10.22 16.67L10.22 16.67Q10.29 16.76 10.35 16.90L10.35 16.90L10.35 16.90Q10.42 17.04 10.43 17.11L10.43 17.11L10.43 17.11Q10.37 17.30 10.20 17.56L10.20 17.56L10.20 17.56Q10.02 17.82 9.80 18.07L9.80 18.07L9.80 18.07Q9.58 18.31 9.35 18.49L9.35 18.49L9.35 18.49Q9.11 18.68 8.95 18.72L8.95 18.72L8.95 18.72Q8.71 18.70 8.51 18.66L8.51 18.66L8.51 18.66Q8.30 18.61 8.06 18.50L8.06 18.50L8.06 18.50Q7.83 18.40 7.53 18.21L7.53 18.21L7.53 18.21Q7.24 18.02 6.80 17.72L6.80 17.72L6.80 17.72Q6.03 17.19 5.46 16.84L5.46 16.84L5.46 16.84Q4.89 16.49 4.41 16.28L4.41 16.28L4.41 16.28Q3.93 16.07 3.51 15.99L3.51 15.99L3.51 15.99Q3.09 15.90 2.65 15.90L2.65 15.90L2.65 15.90Q1.08 15.90 0.91 16.95L0.91 16.95L0.91 16.95Q0.70 16.86 0.67 16.69L0.67 16.69L0.67 16.69Q0.76 15.97 1.20 15.60L1.20 15.60L1.20 15.60Q1.64 15.22 2.56 15.11L2.56 15.11L2.56 15.11Q1.92 14.55 1.92 13.15L1.92 13.15L1.92 13.15Q1.92 12.17 2.15 11.16L2.15 11.16L2.15 11.16Q2.38 10.16 2.78 9.24L2.78 9.24L2.78 9.24Q3.18 8.32 3.72 7.51L3.72 7.51L3.72 7.51Q4.26 6.71 4.88 6.10L4.88 6.10L4.88 6.10Q5.50 5.50 6.17 5.16L6.17 5.16L6.17 5.16Q6.85 4.82 7.50 4.82L7.50 4.82L7.50 4.82Q7.74 4.82 7.95 4.86L7.95 4.86L7.95 4.86Q8.15 4.90 8.36 4.98ZM15.13 14.87L15.13 14.87L15.13 14.87Q14.87 14.64 14.78 14.31L14.78 14.31L14.78 14.31Q14.69 13.97 14.69 13.73L14.69 13.73L14.69 13.73Q14.69 13.44 14.76 13.23L14.76 13.23L14.76 13.23Q14.70 13.23 14.50 13.45L14.50 13.45L14.50 13.45Q14.31 13.68 14.08 13.99L14.08 13.99L14.08 13.99Q13.85 14.29 13.62 14.59L13.62 14.59L13.62 14.59Q13.40 14.88 13.29 15.02L13.29 15.02L13.29 15.02Q13.10 15.22 12.94 15.33L12.94 15.33L12.94 15.33Q12.78 15.44 12.68 15.46L12.68 15.46L12.68 15.46Q12.46 15.44 12.21 15.37L12.21 15.37L12.21 15.37Q11.97 15.29 11.75 15.15L11.75 15.15L11.75 15.15Q11.54 15.01 11.38 14.81L11.38 14.81L11.38 14.81Q11.21 14.62 11.16 14.36L11.16 14.36L11.16 14.36Q11.16 13.97 11.18 13.72L11.18 13.72L11.18 13.72Q11.20 13.47 11.27 13.17L11.27 13.17L11.27 13.17Q11.40 12.64 11.64 11.97L11.64 11.97L11.64 11.97Q11.89 11.30 12.21 10.65L12.21 10.65L12.21 10.65Q12.53 10.00 12.93 9.43L12.93 9.43L12.93 9.43Q13.33 8.86 13.78 8.54L13.78 8.54L13.78 8.54Q13.90 8.54 14.07 8.56L14.07 8.56L14.07 8.56Q14.24 8.58 14.41 8.64L14.41 8.64L14.41 8.64Q14.59 8.69 14.75 8.77L14.75 8.77L14.75 8.77Q14.91 8.85 15.02 8.97L15.02 8.97L15.02 8.97Q14.90 9.11 14.38 9.91L14.38 9.91L14.38 9.91Q13.87 10.71 13.24 12.21L13.24 12.21L13.24 12.21Q13.17 12.36 13.08 12.66L13.08 12.66L13.08 12.66Q12.98 12.95 12.88 13.27L12.88 13.27L12.88 13.27Q12.78 13.59 12.72 13.90L12.72 13.90L12.72 13.90Q12.66 14.21 12.66 14.39L12.66 14.39L12.66 14.39Q12.66 14.50 12.69 14.56L12.69 14.56L12.69 14.56Q12.73 14.62 12.75 14.64L12.75 14.64L12.75 14.64Q12.96 14.56 13.29 14.18L13.29 14.18L13.29 14.18Q13.61 13.80 14.18 13.02L14.18 13.02L14.18 13.02Q14.32 12.82 14.51 12.57L14.51 12.57L14.51 12.57Q14.70 12.32 14.90 12.03L14.90 12.03L14.90 12.03Q15.09 11.75 15.27 11.44L15.27 11.44L15.27 11.44Q15.44 11.13 15.55 10.82L15.55 10.82L15.55 10.82Q15.61 10.65 15.70 10.42L15.70 10.42L15.70 10.42Q15.79 10.19 15.93 9.94L15.93 9.94L15.93 9.94Q16.06 9.69 16.23 9.43L16.23 9.43L16.23 9.43Q16.41 9.17 16.65 8.95L16.65 8.95L16.65 8.95Q16.83 8.95 17.04 8.99L17.04 8.99L17.04 8.99Q17.25 9.03 17.44 9.09L17.44 9.09L17.44 9.09Q17.63 9.16 17.77 9.23L17.77 9.23L17.77 9.23Q17.91 9.31 17.98 9.39L17.98 9.39L17.98 9.39Q17.72 10.01 17.42 10.61L17.42 10.61L17.42 10.61Q17.11 11.21 16.84 11.79L16.84 11.79L16.84 11.79Q16.58 12.38 16.39 12.95L16.39 12.95L16.39 12.95Q16.21 13.52 16.21 14.07L16.21 14.07L16.21 14.07Q16.21 14.36 16.26 14.58L16.26 14.58L16.26 14.58Q16.31 14.80 16.37 14.95L16.37 14.95L16.37 14.95Q16.42 15.09 16.47 15.19L16.47 15.19L16.47 15.19Q16.52 15.29 16.52 15.36L16.52 15.36L16.52 15.36Q16.52 15.37 16.49 15.40L16.49 15.40L16.49 15.40Q16.48 15.41 16.46 15.41L16.46 15.41L16.46 15.41Q16.37 15.41 16.21 15.37L16.21 15.37L16.21 15.37Q16.06 15.33 15.87 15.25L15.87 15.25L15.87 15.25Q15.68 15.18 15.49 15.08L15.49 15.08L15.49 15.08Q15.30 14.98 15.13 14.87ZM18.19 14.24L18.19 14.24L18.19 14.24Q18.19 14.11 18.21 13.92L18.21 13.92L18.21 13.92Q18.23 13.73 18.28 13.42L18.28 13.42L18.28 13.42Q18.34 13.10 18.43 12.66L18.43 12.66L18.43 12.66Q18.52 12.21 18.66 11.58L18.66 11.58L18.66 11.58Q18.69 11.44 18.79 11.13L18.79 11.13L18.79 11.13Q18.89 10.82 19.05 10.48L19.05 10.48L19.05 10.48Q19.21 10.14 19.44 9.81L19.44 9.81L19.44 9.81Q19.67 9.49 19.99 9.34L19.99 9.34L19.99 9.34Q20.23 9.39 20.62 9.63L20.62 9.63L20.62 9.63Q21.01 9.86 21.29 10.26L21.29 10.26L21.29 10.26Q20.97 10.63 20.75 10.99L20.75 10.99L20.75 10.99Q20.54 11.35 20.36 11.75L20.36 11.75L20.36 11.75Q20.19 12.14 20.04 12.56L20.04 12.56L20.04 12.56Q19.89 12.98 19.71 13.44L19.71 13.44L19.71 13.44Q19.56 13.83 19.43 14.25L19.43 14.25L19.43 14.25Q19.31 14.66 19.29 14.97L19.29 14.97L19.29 14.97Q19.29 15.22 19.29 15.32L19.29 15.32L19.29 15.32Q19.28 15.43 19.21 15.43L19.21 15.43L19.21 15.43Q19.15 15.43 18.98 15.36L18.98 15.36L18.98 15.36Q18.82 15.29 18.64 15.14L18.64 15.14L18.64 15.14Q18.47 14.99 18.33 14.77L18.33 14.77L18.33 14.77Q18.19 14.55 18.19 14.24ZM20.86 8.16L20.86 8.16L20.86 8.16Q20.86 8.08 20.90 7.91L20.90 7.91L20.90 7.91Q20.83 7.84 20.78 7.70L20.78 7.70L20.78 7.70Q20.73 7.56 20.73 7.45L20.73 7.45L20.73 7.45Q20.73 7.32 20.77 7.11L20.77 7.11L20.77 7.11Q20.80 6.89 20.86 6.64L20.86 6.64L20.86 6.64Q20.92 6.38 21 6.11L21 6.11L21 6.11Q21.08 5.84 21.17 5.61L21.17 5.61L21.17 5.61Q21.34 5.61 21.58 5.71L21.58 5.71L21.58 5.71Q21.83 5.80 22.08 5.94L22.08 5.94L22.08 5.94Q22.33 6.09 22.54 6.27L22.54 6.27L22.54 6.27Q22.75 6.44 22.86 6.59L22.86 6.59L22.86 6.59Q22.71 6.75 22.46 7.02L22.46 7.02L22.46 7.02Q22.20 7.29 21.97 7.59L21.97 7.59L21.97 7.59Q21.73 7.90 21.53 8.16L21.53 8.16L21.53 8.16Q21.34 8.43 21.28 8.54L21.28 8.54L21.28 8.54Q21.11 8.51 20.99 8.39L20.99 8.39L20.99 8.39Q20.86 8.27 20.86 8.16ZM20.97 14.98L20.97 14.98L20.97 14.98Q20.97 14.76 21.36 14.26L21.36 14.26L21.36 14.26Q21.76 13.76 22.41 13.13L22.41 13.13L22.41 13.13Q23.06 12.49 23.91 11.78L23.91 11.78L23.91 11.78Q24.75 11.07 25.66 10.42L25.66 10.42L25.66 10.42Q25.07 10.29 24.73 10.23L24.73 10.23L24.73 10.23Q24.39 10.18 24.18 10.18L24.18 10.18L24.18 10.18Q23.77 10.18 23.45 10.29L23.45 10.29L23.45 10.29Q23.13 10.40 22.82 10.65L22.82 10.65L22.82 10.65Q22.18 10.09 22.18 9.37L22.18 9.37L22.18 9.37Q22.18 9.14 22.19 9.10L22.19 9.10L22.19 9.10Q22.43 8.86 22.76 8.74L22.76 8.74L22.76 8.74Q23.09 8.61 23.45 8.61L23.45 8.61L23.45 8.61Q23.84 8.61 24.25 8.74L24.25 8.74L24.25 8.74Q24.65 8.86 25.05 9.01L25.05 9.01L25.05 9.01Q25.44 9.16 25.78 9.28L25.78 9.28L25.78 9.28Q26.12 9.41 26.39 9.41L26.39 9.41L26.39 9.41Q26.54 9.41 26.73 9.37L26.73 9.37L26.73 9.37Q26.92 9.32 27.05 9.25L27.05 9.25L27.05 9.25Q27.17 9.35 27.28 9.65L27.28 9.65L27.28 9.65Q27.38 9.94 27.38 10.22L27.38 10.22L27.38 10.22Q26.95 10.39 26.34 10.81L26.34 10.81L26.34 10.81Q25.73 11.23 25.10 11.77L25.10 11.77L25.10 11.77Q24.47 12.32 23.88 12.94L23.88 12.94L23.88 12.94Q23.28 13.55 22.89 14.10L22.89 14.10L22.89 14.10Q23.18 14.22 23.69 14.22L23.69 14.22L23.69 14.22Q24.01 14.22 24.35 14.17L24.35 14.17L24.35 14.17Q24.68 14.11 25.00 14.01L25.00 14.01L25.00 14.01Q25.31 13.92 25.58 13.78L25.58 13.78L25.58 13.78Q25.84 13.65 26.03 13.50L26.03 13.50L26.03 13.50Q26.68 13.92 26.68 14.73L26.68 14.73L26.68 14.73Q26.68 14.84 26.68 14.91L26.68 14.91L26.68 14.91Q26.67 14.98 26.66 15.08L26.66 15.08L26.66 15.08Q26.01 15.48 25.26 15.48L25.26 15.48L25.26 15.48Q24.88 15.48 24.50 15.41L24.50 15.41L24.50 15.41Q24.12 15.33 23.77 15.25L23.77 15.25L23.77 15.25Q23.41 15.16 23.09 15.09L23.09 15.09L23.09 15.09Q22.78 15.01 22.51 15.01L22.51 15.01L22.51 15.01Q21.84 15.01 21.42 15.64L21.42 15.64L21.42 15.64Q21.24 15.57 21.12 15.39L21.12 15.39L21.12 15.39Q21.00 15.20 20.97 14.98ZM27.58 14.98L27.58 14.98L27.58 14.98Q27.58 14.76 27.97 14.26L27.97 14.26L27.97 14.26Q28.36 13.76 29.02 13.13L29.02 13.13L29.02 13.13Q29.67 12.49 30.51 11.78L30.51 11.78L30.51 11.78Q31.36 11.07 32.27 10.42L32.27 10.42L32.27 10.42Q31.68 10.29 31.34 10.23L31.34 10.23L31.34 10.23Q31.00 10.18 30.79 10.18L30.79 10.18L30.79 10.18Q30.38 10.18 30.06 10.29L30.06 10.29L30.06 10.29Q29.74 10.40 29.43 10.65L29.43 10.65L29.43 10.65Q28.78 10.09 28.78 9.37L28.78 9.37L28.78 9.37Q28.78 9.14 28.80 9.10L28.80 9.10L28.80 9.10Q29.04 8.86 29.37 8.74L29.37 8.74L29.37 8.74Q29.69 8.61 30.06 8.61L30.06 8.61L30.06 8.61Q30.45 8.61 30.86 8.74L30.86 8.74L30.86 8.74Q31.26 8.86 31.65 9.01L31.65 9.01L31.65 9.01Q32.05 9.16 32.39 9.28L32.39 9.28L32.39 9.28Q32.73 9.41 33.00 9.41L33.00 9.41L33.00 9.41Q33.15 9.41 33.34 9.37L33.34 9.37L33.34 9.37Q33.53 9.32 33.66 9.25L33.66 9.25L33.66 9.25Q33.78 9.35 33.89 9.65L33.89 9.65L33.89 9.65Q33.99 9.94 33.99 10.22L33.99 10.22L33.99 10.22Q33.56 10.39 32.95 10.81L32.95 10.81L32.95 10.81Q32.34 11.23 31.71 11.77L31.71 11.77L31.71 11.77Q31.08 12.32 30.49 12.94L30.49 12.94L30.49 12.94Q29.89 13.55 29.50 14.10L29.50 14.10L29.50 14.10Q29.79 14.22 30.30 14.22L30.30 14.22L30.30 14.22Q30.62 14.22 30.95 14.17L30.95 14.17L30.95 14.17Q31.29 14.11 31.61 14.01L31.61 14.01L31.61 14.01Q31.92 13.92 32.19 13.78L32.19 13.78L32.19 13.78Q32.45 13.65 32.63 13.50L32.63 13.50L32.63 13.50Q33.29 13.92 33.29 14.73L33.29 14.73L33.29 14.73Q33.29 14.84 33.29 14.91L33.29 14.91L33.29 14.91Q33.28 14.98 33.26 15.08L33.26 15.08L33.26 15.08Q32.62 15.48 31.86 15.48L31.86 15.48L31.86 15.48Q31.49 15.48 31.11 15.41L31.11 15.41L31.11 15.41Q30.73 15.33 30.37 15.25L30.37 15.25L30.37 15.25Q30.02 15.16 29.70 15.09L29.70 15.09L29.70 15.09Q29.39 15.01 29.12 15.01L29.12 15.01L29.12 15.01Q28.45 15.01 28.03 15.64L28.03 15.64L28.03 15.64Q27.85 15.57 27.73 15.39L27.73 15.39L27.73 15.39Q27.61 15.20 27.58 14.98ZM39.90 13.01L39.90 13.01L39.90 13.01Q39.58 14.03 39.26 14.87L39.26 14.87L39.26 14.87Q38.93 15.71 38.57 16.41L38.57 16.41L38.57 16.41Q38.21 17.12 37.79 17.72L37.79 17.72L37.79 17.72Q37.37 18.31 36.86 18.84L36.86 18.84L36.86 18.84Q36.22 19.52 35.53 19.87L35.53 19.87L35.53 19.87Q34.85 20.23 34.16 20.23L34.16 20.23L34.16 20.23Q33.81 20.23 33.47 20.15L33.47 20.15L33.47 20.15Q33.12 20.08 32.82 19.94L32.82 19.94L32.82 19.94Q32.52 19.81 32.29 19.64L32.29 19.64L32.29 19.64Q32.06 19.46 31.96 19.26L31.96 19.26L31.96 19.26Q31.96 19.10 32.16 18.97L32.16 18.97L32.16 18.97Q32.33 19.12 32.44 19.21L32.44 19.21L32.44 19.21Q32.55 19.29 32.66 19.35L32.66 19.35L32.66 19.35Q32.76 19.40 32.88 19.42L32.88 19.42L32.88 19.42Q33.00 19.43 33.15 19.43L33.15 19.43L33.15 19.43Q33.95 19.43 34.71 18.96L34.71 18.96L34.71 18.96Q35.48 18.49 36.16 17.63L36.16 17.63L36.16 17.63Q36.83 16.77 37.39 15.55L37.39 15.55L37.39 15.55Q37.95 14.32 38.35 12.81L38.35 12.81L38.35 12.81Q38.16 13.09 37.90 13.50L37.90 13.50L37.90 13.50Q37.63 13.90 37.31 14.30L37.31 14.30L37.31 14.30Q36.99 14.70 36.65 15.02L36.65 15.02L36.65 15.02Q36.30 15.34 35.98 15.46L35.98 15.46L35.98 15.46Q35.76 15.44 35.51 15.37L35.51 15.37L35.51 15.37Q35.27 15.29 35.05 15.15L35.05 15.15L35.05 15.15Q34.83 15.01 34.66 14.81L34.66 14.81L34.66 14.81Q34.50 14.62 34.44 14.36L34.44 14.36L34.44 14.36Q34.44 13.96 34.47 13.71L34.47 13.71L34.47 13.71Q34.50 13.47 34.57 13.17L34.57 13.17L34.57 13.17Q34.69 12.64 34.94 11.97L34.94 11.97L34.94 11.97Q35.18 11.30 35.51 10.65L35.51 10.65L35.51 10.65Q35.84 10.00 36.24 9.43L36.24 9.43L36.24 9.43Q36.64 8.86 37.07 8.54L37.07 8.54L37.07 8.54Q37.18 8.54 37.35 8.56L37.35 8.56L37.35 8.56Q37.52 8.58 37.70 8.64L37.70 8.64L37.70 8.64Q37.88 8.69 38.05 8.77L38.05 8.77L38.05 8.77Q38.22 8.85 38.35 8.97L38.35 8.97L38.35 8.97Q38.19 9.11 37.67 9.91L37.67 9.91L37.67 9.91Q37.16 10.71 36.53 12.21L36.53 12.21L36.53 12.21Q36.46 12.36 36.36 12.66L36.36 12.66L36.36 12.66Q36.26 12.95 36.17 13.27L36.17 13.27L36.17 13.27Q36.08 13.59 36.01 13.90L36.01 13.90L36.01 13.90Q35.94 14.21 35.94 14.39L35.94 14.39L35.94 14.39Q35.94 14.50 35.97 14.56L35.97 14.56L35.97 14.56Q36.01 14.62 36.04 14.64L36.04 14.64L36.04 14.64Q36.29 14.60 36.71 14.23L36.71 14.23L36.71 14.23Q37.13 13.86 37.66 13.08L37.66 13.08L37.66 13.08Q38.00 12.57 38.28 12.07L38.28 12.07L38.28 12.07Q38.56 11.58 38.83 11.07L38.83 11.07L38.83 11.07Q39.10 10.57 39.40 10.04L39.40 10.04L39.40 10.04Q39.69 9.51 40.03 8.95L40.03 8.95L40.03 8.95Q40.21 8.95 40.42 8.99L40.42 8.99L40.42 8.99Q40.63 9.03 40.82 9.09L40.82 9.09L40.82 9.09Q41.02 9.16 41.17 9.23L41.17 9.23L41.17 9.23Q41.31 9.31 41.38 9.39L41.38 9.39L41.38 9.39Q40.95 10.32 40.57 11.20L40.57 11.20L40.57 11.20Q40.19 12.08 39.90 13.01Z"></path></g><defs data-v-29081953=""><linearGradient data-v-29081953="" gradientTransform="rotate(25)" id="c5dcadc9-01fb-40bd-ba5a-d723d504f90e" x1="0%" y1="0%" x2="100%" y2="0%"><stop data-v-29081953="" offset="0%" stop-color="#E90DCA" stop-opacity="1"></stop><stop data-v-29081953="" offset="100%" stop-color="#1536F1" stop-opacity="1"></stop></linearGradient></defs><g data-v-29081953="" id="445e9e5b-f430-484f-9f6e-2ef49dd069a4" stroke="none" fill="url(#c5dcadc9-01fb-40bd-ba5a-d723d504f90e)" transform="matrix(1.707905684336606,0,0,1.707905684336606,65.18416447046673,22.299264940263377)"><switch><g><path d="M89.141 35.617C86.25 22.852 77.844 14.405 68.699 10.364c11.371 10.018 21.846 29.405 8.814 47.069-5.406 7.331-16.217 10.228-20.746 8.184 0 0 7.002-1.487 11.357-5.295 8.469-8.017 11.299-20.932 4.52-32.673a25.839 25.839 0 0 0-3.357-4.575c-.018-.021-.033-.042-.051-.062-4.764-5.683-11.307-9.075-18.337-10.116-9.127-1.715-20.896.515-29.71 8.666C11.58 30.45 8.468 41.953 9.542 51.895c2.989-14.858 14.542-33.622 36.355-31.171 9.053 1.019 16.965 8.932 17.461 13.877 0 0-5.277-8.281-18.365-8.281-.24.004-.747.024-.761.024l-.167.01c-8.51.333-16.783 4.784-21.83 13.526a25.819 25.819 0 0 0-2.284 5.195l-.028.074c-2.539 6.968-2.205 14.33.407 20.938 3.079 8.763 10.896 17.841 22.361 21.397 12.502 3.878 24.02.82 32.092-5.079-14.363 4.837-36.389 4.216-45.173-15.899-3.645-8.35-.749-19.159 3.287-22.061 0 0-4.534 8.71 2.012 20.044 4.482 7.484 12.617 12.658 22.949 12.658.498 0 4.488-.311 5.926-.633l.08-.011c7.303-1.286 13.512-5.256 17.928-10.822 6.05-7.046 10.003-18.356 7.349-30.064z"></path></g></switch></g><!----></svg>